/* XPM */
static char * folder_table_xpm[] = {
"32 32 305 2",
"  	c None",
". 	c #CD9441",
"+ 	c #D0943D",
"@ 	c #CF923B",
"# 	c #CF923A",
"$ 	c #FFFCDB",
"% 	c #FFF8D7",
"& 	c #FFF7D8",
"* 	c #FFF8D8",
"= 	c #D0933C",
"- 	c #F9CF5D",
"; 	c #F8CF60",
"> 	c #F8CF61",
", 	c #F8CF5E",
"' 	c #FFEEBC",
") 	c #CC8C34",
"! 	c #CE9139",
"~ 	c #FFF6D3",
"{ 	c #F8D163",
"] 	c #F8D268",
"^ 	c #F8D369",
"/ 	c #F8D269",
"( 	c #F8D166",
"_ 	c #FDE7A8",
": 	c #FFF7DA",
"< 	c #FFF8DA",
"[ 	c #FFF9D9",
"} 	c #FFFDDE",
"| 	c #FFF5CF",
"1 	c #F8D367",
"2 	c #F8D46C",
"3 	c #F8D46D",
"4 	c #F8D46B",
"5 	c #F8D368",
"6 	c #F8D266",
"7 	c #F8D265",
"8 	c #F9D262",
"9 	c #FFF7D5",
"0 	c #FFF5C9",
"a 	c #F9D469",
"b 	c #F9D56E",
"c 	c #F9D56F",
"d 	c #F9D56D",
"e 	c #FAD56E",
"f 	c #FAD56D",
"g 	c #FAD569",
"h 	c #FFF5C7",
"i 	c #CF923C",
"j 	c #FFF3C4",
"k 	c #F9D66C",
"l 	c #F9D770",
"m 	c #F9D771",
"n 	c #FAD972",
"o 	c #FBDA73",
"p 	c #FCDC74",
"q 	c #FCDC73",
"r 	c #FDDC70",
"s 	c #FFF3BD",
"t 	c #CF933D",
"u 	c #FFF3C0",
"v 	c #FAD86E",
"w 	c #FAD872",
"x 	c #FAD873",
"y 	c #FBDA74",
"z 	c #FDDD76",
"A 	c #DDAB51",
"B 	c #CB8C38",
"C 	c #CB8C36",
"D 	c #CB8B36",
"E 	c #CB8B35",
"F 	c #CC8C35",
"G 	c #CE9038",
"H 	c #CE913A",
"I 	c #FFF2BD",
"J 	c #FADA71",
"K 	c #FADA74",
"L 	c #FADB75",
"M 	c #FBDB76",
"N 	c #FBDC76",
"O 	c #FCDC77",
"P 	c #FDDF79",
"Q 	c #DEAC52",
"R 	c #DDA64A",
"S 	c #FFF9DA",
"T 	c #FFF7D6",
"U 	c #FFF6D5",
"V 	c #FFF7D4",
"W 	c #FFFCD9",
"X 	c #CF923D",
"Y 	c #FFF1B8",
"Z 	c #FADB74",
"` 	c #FBDC77",
" .	c #FCDF7A",
"..	c #FDE07A",
"+.	c #FDE17A",
"@.	c #FDE17B",
"#.	c #FEE27C",
"$.	c #DEAC54",
"%.	c #DDA84F",
"&.	c #FBD56A",
"*.	c #F9D265",
"=.	c #F8D063",
"-.	c #F8D062",
";.	c #F8D060",
">.	c #FBDB7F",
",.	c #FBEDC8",
"'.	c #C08737",
").	c #FFF1B5",
"!.	c #FCDD77",
"~.	c #FEE07C",
"{.	c #CA8B37",
"].	c #CB8B38",
"^.	c #DDA94F",
"/.	c #FCD870",
"(.	c #FAD66F",
"_.	c #F9D46D",
":.	c #F9D46C",
"<.	c #F9D36C",
"[.	c #F9D268",
"}.	c #FEE7A1",
"|.	c #EACA93",
"1.	c #FFF1B1",
"2.	c #EFC768",
"3.	c #DAA447",
"4.	c #FFF4C6",
"5.	c #FFF2C3",
"6.	c #FFF2C4",
"7.	c #FFF2C5",
"8.	c #FFF2C7",
"9.	c #FBD870",
"0.	c #FAD771",
"a.	c #F9D671",
"b.	c #FAD671",
"c.	c #FAD56B",
"d.	c #FFF1BC",
"e.	c #E1AD63",
"f.	c #CE923D",
"g.	c #FFF0AE",
"h.	c #FFE47E",
"i.	c #DEAD53",
"j.	c #EBC473",
"k.	c #FEEFBC",
"l.	c #FAD86C",
"m.	c #FAD86F",
"n.	c #FAD96F",
"o.	c #FAD970",
"p.	c #FAD973",
"q.	c #FAD974",
"r.	c #FEDB73",
"s.	c #FFDC72",
"t.	c #FFDC71",
"u.	c #FFDC6F",
"v.	c #FFE384",
"w.	c #FFEDB5",
"x.	c #DB9235",
"y.	c #FFF2AA",
"z.	c #FFE681",
"A.	c #D0963F",
"B.	c #F8DF97",
"C.	c #FADA72",
"D.	c #FADB76",
"E.	c #FADB77",
"F.	c #FBDB77",
"G.	c #FFDD75",
"H.	c #F8D977",
"I.	c #FFEEB0",
"J.	c #7E7A59",
"K.	c #CF923E",
"L.	c #FFF3A9",
"M.	c #F6D776",
"N.	c #D59B42",
"O.	c #FBE28B",
"P.	c #FBDD78",
"Q.	c #FBDD7A",
"R.	c #FDDE79",
"S.	c #FFE275",
"T.	c #4C98AA",
"U.	c #0075BE",
"V.	c #0074BC",
"W.	c #0074BB",
"X.	c #0074B9",
"Y.	c #0077BA",
"Z.	c #047CBB",
"`.	c #147FB5",
" +	c #FFF5A6",
".+	c #E6BB5F",
"++	c #E5BB69",
"@+	c #FFEFAF",
"#+	c #FCE07D",
"$+	c #FCDF7C",
"%+	c #FCDF7D",
"&+	c #FFE17C",
"*+	c #FFE676",
"=+	c #0073BE",
"-+	c #FFFFFF",
";+	c #0E7EB7",
">+	c #CF933F",
",+	c #FFF6A6",
"'+	c #D59D45",
")+	c #F7DC8E",
"!+	c #FFE99C",
"~+	c #FCE17F",
"{+	c #FCE181",
"]+	c #FFE380",
"^+	c #FFE97A",
"/+	c #0072BC",
"(+	c #FFC444",
"_+	c #FFC646",
":+	c #7EB5E3",
"<+	c #FFC746",
"[+	c #7EB4E1",
"}+	c #FFC440",
"|+	c #097CB5",
"1+	c #D09440",
"2+	c #FEEC96",
"3+	c #D19640",
"4+	c #FFF0A6",
"5+	c #FEE68F",
"6+	c #FDE383",
"7+	c #FDE384",
"8+	c #FFE583",
"9+	c #FFEB7D",
"0+	c #0071BB",
"a+	c #7CB2DD",
"b+	c #81B5DF",
"c+	c #86B7DE",
"d+	c #83B6DF",
"e+	c #84B6DD",
"f+	c #7FB3DB",
"g+	c #097BB5",
"h+	c #D09541",
"i+	c #F2D37C",
"j+	c #E0B25F",
"k+	c #FFEFA5",
"l+	c #FDE686",
"m+	c #FDE587",
"n+	c #FFE786",
"o+	c #FFED81",
"p+	c #0071BA",
"q+	c #D8F5FF",
"r+	c #DDF8FF",
"s+	c #8BB5D7",
"t+	c #DFF9FF",
"u+	c #8AB5D7",
"v+	c #DBF8FF",
"w+	c #087BB4",
"x+	c #D19743",
"y+	c #DFB35D",
"z+	c #F2D382",
"A+	c #FFEF9A",
"B+	c #FFEA8A",
"C+	c #FFEA8B",
"D+	c #FFEB8A",
"E+	c #FFF185",
"F+	c #0071B9",
"G+	c #DFF7FF",
"H+	c #E4FAFF",
"I+	c #8FB7D6",
"J+	c #E6FBFF",
"K+	c #8EB7D5",
"L+	c #E3FAFF",
"M+	c #D29844",
"N+	c #FFFBA8",
"O+	c #FFF49A",
"P+	c #FFF395",
"Q+	c #FFF494",
"R+	c #FFF98D",
"S+	c #0073BB",
"T+	c #8DB4D5",
"U+	c #91B7D6",
"V+	c #95BAD8",
"W+	c #93B8D7",
"X+	c #94B9D8",
"Y+	c #8FB6D6",
"Z+	c #CF9745",
"`+	c #CE923E",
" @	c #D1923D",
".@	c #DF9433",
"+@	c #0076BE",
"@@	c #ECFCFF",
"#@	c #F0FEFF",
"$@	c #96BAD7",
"%@	c #F1FFFF",
"&@	c #EFFEFF",
"*@	c #0079C0",
"=@	c #F3FEFF",
"-@	c #F6FFFF",
";@	c #9ABBD7",
">@	c #F8FFFF",
",@	c #0079BD",
"'@	c #99B9D4",
")@	c #9DBCD6",
"!@	c #A1BFD8",
"~@	c #9EBDD7",
"{@	c #A0BFD7",
"]@	c #9CBCD6",
"^@	c #017AB8",
"/@	c #FEFFFF",
"(@	c #A0BED7",
"_@	c #087AB4",
":@	c #077BB5",
"<@	c #A2BDD6",
"[@	c #097BB4",
"}@	c #0E7EB6",
"|@	c #187FB2",
"                                                                ",
"  . + @ # # # # # @ + .                                         ",
"  + $ % & & & & & * $ =                                         ",
"  @ % - ; > > > > , ' ) ! # # # # # # # # # # # # + .           ",
"  @ ~ { ] ^ ^ ^ / ( _ : < < < < < < < < < < < < [ } +           ",
"  @ | 1 2 3 3 3 3 4 5 6 6 6 6 6 6 6 6 6 6 6 6 7 8 9 @           ",
"  @ 0 a b c c c c c b b d d b b e e e e e e e f g h i           ",
"  i j k l m m m m m m m m m n o p p p p p p p q r s t           ",
"  i u v w x x x x x x x x y z A B C C C C C C D E F G H @ + .   ",
"  i I J K L M M M M M N O P Q R S T U U U U U U U 9 9 9 V W +   ",
"  X Y Z `  ...+.@.@.@.@.#.$.%.&.*.=.-.-.-.-.-.-.-.-.-.;.>.,.'.  ",
"  X ).!.~.Q {.D D D D D ].^./.(._._.:.:.:.:.:.:.:.:.<.[.}.|.    ",
"  X 1.+.2.3.4.5.6.6.6.7.8.9.0.a.a.a.b.b.b.b.b.b.b.b.(.c.d.e.    ",
"  f.g.h.i.j.k.l.v m.m.n.o.p.q.q.y r.s.t.t.t.t.t.t.t.u.v.w.x.    ",
"  f.y.z.A.B.}.C.L D.D.D.D.E.E.F.G.H.H.H.H.H.H.H.H.H.H.I.|.J.    ",
"  K.L.M.N.I.O.P.Q.Q.Q.Q.Q.Q.Q.R.S.T.U.V.W.W.W.W.W.W.W.X.Y.Z.`.  ",
"  K. +.+++@+#+$+%+%+%+%+%+%+%+&+*+=+-+-+-+-+-+-+-+-+-+-+-+-+;+  ",
"  >+,+'+)+!+~+{+{+{+{+{+{+{+{+]+^+/+-+(+_+:+<+<+:+<+<+[+}+-+|+  ",
"  1+2+3+4+5+6+7+7+7+7+7+7+7+7+8+9+0+-+a+b+c+d+d+c+d+d+e+f+-+g+  ",
"  h+i+j+k+l+m+m+m+m+m+m+m+m+m+n+o+p+-+q+r+s+t+t+s+t+t+u+v+-+w+  ",
"  x+y+z+A+B+C+C+C+C+C+C+C+C+C+D+E+F+-+G+H+I+J+J+I+J+J+K+L+-+w+  ",
"  M+>+N+O+P+P+P+P+P+P+P+P+P+P+Q+R+S+-+T+U+V+W+W+V+W+W+X+Y+-+w+  ",
"  Z+M+1+`+`+`+`+`+`+`+`+`+`+`+ @.@+@-+@@#@$@%@%@$@%@%@$@&@-+w+  ",
"                                  *@-+=@-@;@>@>@;@>@>@;@-@-+w+  ",
"                                  ,@-+'@)@!@~@~@!@~@~@{@]@-+w+  ",
"                                  ^@-+/@-+(@-+-+(@-+-+(@-+-+_@  ",
"                                  :@-+-+-+<@-+-+<@-+-+<@-+-+[@  ",
"                                  }@-+-+-+-+-+-+-+-+-+-+-+-+}@  ",
"                                  |@}@[@_@w+_@_@w+_@_@w+[@}@|@  ",
"                                                                ",
"                                                                ",
"                                                                "};
