/* XPM */
static char * table_select_column_xpm[] = {
"32 32 235 2",
"  	c None",
". 	c #1881B5",
"+ 	c #0E7EB6",
"@ 	c #097CB6",
"# 	c #077BB6",
"$ 	c #087BB6",
"% 	c #087BB5",
"& 	c #087CB6",
"* 	c #0A7CB5",
"= 	c #0B7DB5",
"- 	c #FFFFFF",
"; 	c #FFC34C",
"> 	c #FFC554",
", 	c #FFC656",
"' 	c #FFC655",
") 	c #FFC64F",
"! 	c #79B5E9",
"~ 	c #FFC755",
"{ 	c #FFCC51",
"] 	c #005BBC",
"^ 	c #075FB8",
"/ 	c #FFC54D",
"( 	c #FFC856",
"_ 	c #FFC958",
": 	c #FFC956",
"< 	c #FFCA51",
"[ 	c #7FB9EB",
"} 	c #FFCA57",
"| 	c #FFD153",
"1 	c #0662C0",
"2 	c #979C89",
"3 	c #949B89",
"4 	c #097BB5",
"5 	c #7CB2DE",
"6 	c #7EB4E3",
"7 	c #7FB6E4",
"8 	c #80B6E3",
"9 	c #83B7E1",
"0 	c #87B8E0",
"a 	c #81B7E4",
"b 	c #8EBEE4",
"c 	c #0B61B9",
"d 	c #67A0D3",
"e 	c #629DD2",
"f 	c #097BB4",
"g 	c #D1F2FF",
"h 	c #D2F3FF",
"i 	c #D4F3FF",
"j 	c #D4F4FF",
"k 	c #D8F6FF",
"l 	c #86B4D7",
"m 	c #D6F5FF",
"n 	c #E3FEFF",
"o 	c #095DB2",
"p 	c #98C6E8",
"q 	c #92C1E7",
"r 	c #087AB4",
"s 	c #CFEFFE",
"t 	c #D0EEFD",
"u 	c #D1EFFD",
"v 	c #D2F0FE",
"w 	c #D6F3FF",
"x 	c #85B2D4",
"y 	c #D3F1FF",
"z 	c #E1FBFF",
"A 	c #075BB0",
"B 	c #96C3E6",
"C 	c #8FBFE4",
"D 	c #D2EFFD",
"E 	c #D3F0FD",
"F 	c #D4F1FE",
"G 	c #D8F4FF",
"H 	c #86B2D4",
"I 	c #D6F2FF",
"J 	c #E3FCFF",
"K 	c #97C4E6",
"L 	c #90C0E4",
"M 	c #087BB4",
"N 	c #DAF4FF",
"O 	c #DBF5FF",
"P 	c #DCF5FF",
"Q 	c #DFF8FF",
"R 	c #8CB5D5",
"S 	c #DDF6FF",
"T 	c #EAFFFF",
"U 	c #095CB2",
"V 	c #9BC6E8",
"W 	c #95C2E5",
"X 	c #86B1D3",
"Y 	c #89B3D3",
"Z 	c #8AB3D4",
"` 	c #8AB4D4",
" .	c #8DB6D6",
"..	c #8FB8D7",
"+.	c #98BED9",
"@.	c #0B5EB3",
"#.	c #699ECD",
"$.	c #639ACB",
"%.	c #DEF6FF",
"&.	c #DFF7FF",
"*.	c #E3FAFF",
"=.	c #8DB7D5",
"-.	c #E1F8FF",
";.	c #EEFFFF",
">.	c #085CB1",
",.	c #9EC9E7",
"'.	c #98C4E5",
").	c #DCF3FF",
"!.	c #DBF2FF",
"~.	c #DDF4FF",
"{.	c #E1F7FF",
"].	c #8DB5D5",
"^.	c #DFF5FF",
"/.	c #EDFFFF",
"(.	c #055AB0",
"_.	c #9DC7E7",
":.	c #97C2E5",
"<.	c #DEF5FF",
"[.	c #DDF3FE",
"}.	c #DEF4FF",
"|.	c #E3F8FF",
"1.	c #8EB6D5",
"2.	c #E1F6FF",
"3.	c #EFFFFF",
"4.	c #9EC7E7",
"5.	c #98C2E5",
"6.	c #E4F8FF",
"7.	c #E5F9FF",
"8.	c #E6F9FF",
"9.	c #E9FCFF",
"0.	c #92B8D6",
"a.	c #E8FBFF",
"b.	c #F5FFFF",
"c.	c #075BB1",
"d.	c #A2CAE9",
"e.	c #9BC5E7",
"f.	c #8EB4D4",
"g.	c #90B6D4",
"h.	c #91B6D5",
"i.	c #92B7D5",
"j.	c #94B9D7",
"k.	c #97BBD8",
"l.	c #94B8D6",
"m.	c #A0C1DA",
"n.	c #6EA1CD",
"o.	c #689CCB",
"p.	c #E9F9FF",
"q.	c #EAFAFF",
"r.	c #EBFAFF",
"s.	c #EFFDFF",
"t.	c #95B9D6",
"u.	c #EDFBFF",
"v.	c #FBFFFF",
"w.	c #065BB1",
"x.	c #A5C9E9",
"y.	c #9EC5E7",
"z.	c #E8F8FF",
"A.	c #E7F7FE",
"B.	c #93B7D5",
"C.	c #EAF9FF",
"D.	c #F9FFFF",
"E.	c #035AB0",
"F.	c #A5C9E7",
"G.	c #9EC4E5",
"H.	c #E9F8FE",
"I.	c #EFFCFF",
"J.	c #95B9D5",
"K.	c #ECFAFF",
"L.	c #FCFFFF",
"M.	c #A6CAE7",
"N.	c #9FC5E5",
"O.	c #F0FDFF",
"P.	c #F1FDFF",
"Q.	c #99BBD6",
"R.	c #F3FFFF",
"S.	c #055BB1",
"T.	c #AACCE9",
"U.	c #A2C7E7",
"V.	c #96B6D4",
"W.	c #96B7D4",
"X.	c #97B8D5",
"Y.	c #98B8D5",
"Z.	c #9BBAD7",
"`.	c #9EBDD8",
" +	c #9ABAD6",
".+	c #A8C3DA",
"++	c #075DB2",
"@+	c #73A1CD",
"#+	c #6D9DCB",
"$+	c #F5FEFF",
"%+	c #F6FEFF",
"&+	c #FAFFFF",
"*+	c #9DBCD6",
"=+	c #F8FFFF",
"-+	c #045BB1",
";+	c #ADCDE9",
">+	c #A6C8E7",
",+	c #077AB4",
"'+	c #F4FCFF",
")+	c #F2FBFE",
"!+	c #F3FCFF",
"~+	c #9BBAD5",
"{+	c #F6FDFF",
"]+	c #0159B0",
"^+	c #ABCBE7",
"/+	c #A3C6E5",
"(+	c #F5FDFF",
"_+	c #9DBBD6",
":+	c #F8FEFF",
"<+	c #AECCE9",
"[+	c #A6C7E6",
"}+	c #FDFFFF",
"|+	c #A0BFD7",
"1+	c #035AB1",
"2+	c #B1CFEA",
"3+	c #AACBE8",
"4+	c #9DBBD5",
"5+	c #9EBCD6",
"6+	c #A1BED8",
"7+	c #A4C1D9",
"8+	c #A0BED7",
"9+	c #AEC7DB",
"0+	c #065CB2",
"a+	c #77A4CE",
"b+	c #709FCC",
"c+	c #A3BED7",
"d+	c #B6D0EA",
"e+	c #AFCCE8",
"f+	c #FEFFFF",
"g+	c #A1BDD6",
"h+	c #B9D3EB",
"i+	c #B5CFE9",
"j+	c #A2BDD5",
"k+	c #0055AE",
"l+	c #1982B6",
"  . + @ # # # # $ % $ # # & * = = = = * & # # $ % $ # # @ + .   ",
"  + - - - - - - - - - - - - - - - - - - - - - - - - - - - - +   ",
"  @ - ; > , , ' ) ! ) ' ~ { ] ^ ^ ^ ^ ] { ~ ' ) ! ) ' > ; - @   ",
"  $ - / ( _ _ : < [ < : } | 1 2 3 3 2 1 | } : < [ < : ( / - $   ",
"  4 - 5 6 7 7 8 9 0 9 8 a b c d e e d c b a 8 9 0 9 8 6 5 - 4   ",
"  f - g h i i j k l k j m n o p q q p o n m j k l k j h g - f   ",
"  r - s t u u v w x w v y z A B C C B A z y v w x w v t s - r   ",
"  r - v D E E F G H G F I J A K L L K A J I F G H G F D v - r   ",
"  M - G N O O P Q R Q P S T U V W W V U T S P Q R Q P N G - M   ",
"  f - X Y Z Z `  ... .` R +.@.#.$.$.#.@.+.R `  ... .` Y X - f   ",
"  M - S %.&.&.&.*.=.*.&.-.;.>.,.'.'.,.>.;.-.&.*.=.*.&.%.S - M   ",
"  r - ).!.).).~.{.].{.~.^./.(._.:.:._.(./.^.~.{.].{.~.!.).- r   ",
"  r - <.[.}.}.^.|.1.|.^.2.3.(.4.5.5.4.(.3.2.^.|.1.|.^.[.<.- r   ",
"  r - 6.6.7.7.8.9.0.9.8.a.b.c.d.e.e.d.c.b.a.8.9.0.9.8.6.6.- r   ",
"  M - f.g.h.h.i.j.k.j.i.l.m.o n.o.o.n.o m.l.i.j.k.j.i.g.f.- M   ",
"  r - p.p.q.q.r.s.t.s.r.u.v.w.x.y.y.x.w.v.u.r.s.t.s.r.p.p.- r   ",
"  r - z.A.A.A.z.u.B.u.z.C.D.E.F.G.G.F.E.D.C.z.u.B.u.z.A.z.- r   ",
"  r - C.H.H.H.C.I.J.I.C.K.L.E.M.N.N.M.E.L.K.C.I.J.I.C.H.C.- r   ",
"  r - O.O.O.O.P.b.Q.b.P.R.- S.T.U.U.T.S.- R.P.b.Q.b.P.O.O.- r   ",
"  M - V.W.X.X.Y.Z.`.Z.Y. +.+++@+#+#+@+++.+ +Y.Z.`.Z.Y.W.V.- M   ",
"  r - $+$+$+$+%+&+*+&+%+=+- -+;+>+>+;+-+- =+%+&+*+&+%+$+$+- r   ",
"  ,+- '+)+)+)+!+=+~+=+!+{+- ]+^+/+/+^+]+- {+!+=+~+=+!+)+'+- ,+  ",
"  ,+- {+'+'+'+(+&+_+&+(+:+- ]+<+[+[+<+]+- :+(+&+_+&+(+'+{+- ,+  ",
"  r - L.v.v.v.}+- |+- }+- - 1+2+3+3+2+1+- - }+- |+- }+v.L.- r   ",
"  M - 4+_+*+*+5+6+7+6+5+8+9+0+a+b+b+a+0+9+8+5+6+7+6+5+_+4+- M   ",
"  r - - - - - - - c+- - - - 1+d+e+e+d+1+- - - - c+- - - - - r   ",
"  ,+- - }+}+}+f+- g+- f+- - ]+h+i+i+h+]+- - f+- g+- f+}+- - ,+  ",
"  f - - - - - - - j+- - - - k+-+1+1+-+k+- - - - j+- - - - - f   ",
"  + - - - - - - - - - - - - - - - - - - - - - - - - - - - - +   ",
"  l++ f ,+,+,+,+r M r ,+,+M * = = = = * M ,+,+r M r ,+,+f + l+  ",
"                                                                ",
"                                                                "};
