/* XPM */
static char * table_select_row_xpm[] = {
"32 32 139 2",
"  	c None",
". 	c #1881B5",
"+ 	c #0E7EB6",
"@ 	c #097CB6",
"# 	c #077BB6",
"$ 	c #087BB6",
"% 	c #087BB5",
"& 	c #FFFFFF",
"* 	c #FFC34C",
"= 	c #FFC554",
"- 	c #FFC656",
"; 	c #FFC655",
"> 	c #FFC64F",
", 	c #79B5E9",
"' 	c #FFC54D",
") 	c #FFC856",
"! 	c #FFC958",
"~ 	c #FFC956",
"{ 	c #FFCA51",
"] 	c #7FB9EB",
"^ 	c #097BB5",
"/ 	c #7CB2DE",
"( 	c #7EB4E3",
"_ 	c #7FB6E4",
": 	c #80B6E3",
"< 	c #83B7E1",
"[ 	c #87B8E0",
"} 	c #097BB4",
"| 	c #D1F2FF",
"1 	c #D2F3FF",
"2 	c #D4F3FF",
"3 	c #D4F4FF",
"4 	c #D8F6FF",
"5 	c #86B4D7",
"6 	c #087AB4",
"7 	c #CFEFFE",
"8 	c #D0EEFD",
"9 	c #D1EFFD",
"0 	c #D2F0FE",
"a 	c #D6F3FF",
"b 	c #85B2D4",
"c 	c #D2EFFD",
"d 	c #D3F0FD",
"e 	c #D4F1FE",
"f 	c #D8F4FF",
"g 	c #86B2D4",
"h 	c #087BB4",
"i 	c #DAF4FF",
"j 	c #DBF5FF",
"k 	c #DCF5FF",
"l 	c #DFF8FF",
"m 	c #8CB5D5",
"n 	c #86B1D3",
"o 	c #89B3D3",
"p 	c #8AB3D4",
"q 	c #8AB4D4",
"r 	c #8DB6D6",
"s 	c #8FB8D7",
"t 	c #DDF6FF",
"u 	c #DEF6FF",
"v 	c #DFF7FF",
"w 	c #E3FAFF",
"x 	c #8DB7D5",
"y 	c #DCF3FF",
"z 	c #DBF2FF",
"A 	c #DDF4FF",
"B 	c #E1F7FF",
"C 	c #8DB5D5",
"D 	c #DFF5FF",
"E 	c #E0F5FF",
"F 	c #E1F6FF",
"G 	c #E5F9FF",
"H 	c #90B7D6",
"I 	c #EDFFFF",
"J 	c #F0FFFF",
"K 	c #F1FFFF",
"L 	c #F2FFFF",
"M 	c #F5FFFF",
"N 	c #9EC0DA",
"O 	c #0A7CB5",
"P 	c #0057AF",
"Q 	c #055AB0",
"R 	c #045AB0",
"S 	c #065BB1",
"T 	c #095DB2",
"U 	c #0B7DB5",
"V 	c #055BB1",
"W 	c #AACDE9",
"X 	c #A6CAE8",
"Y 	c #A4C8E7",
"Z 	c #A5C9E7",
"` 	c #A8CBE9",
" .	c #6FA0CD",
"..	c #045BB1",
"+.	c #9FC5E6",
"@.	c #9DC3E5",
"#.	c #9EC4E5",
"$.	c #A0C6E7",
"%.	c #689CCB",
"&.	c #045AB1",
"*.	c #A7CBE7",
"=.	c #A0C6E6",
"-.	c #9EC5E5",
";.	c #9FC5E5",
">.	c #A2C7E7",
",.	c #6B9DCB",
"'.	c #A1C6E6",
").	c #ACCEE9",
"!.	c #A8CBE8",
"~.	c #A6C9E7",
"{.	c #A7CAE7",
"].	c #AACCE9",
"^.	c #71A1CD",
"/.	c #0056AF",
"(.	c #035AB0",
"_.	c #0259B0",
":.	c #075DB2",
"<.	c #A9C4DA",
"[.	c #F6FDFF",
"}.	c #F4FCFF",
"|.	c #FAFFFF",
"1.	c #9CBCD6",
"2.	c #077AB4",
"3.	c #F5FDFF",
"4.	c #9DBBD6",
"5.	c #FCFFFF",
"6.	c #FBFFFF",
"7.	c #FDFFFF",
"8.	c #A0BFD7",
"9.	c #9DBBD5",
"0.	c #9DBCD6",
"a.	c #9EBCD6",
"b.	c #A1BED8",
"c.	c #A4C1D9",
"d.	c #A3BED7",
"e.	c #FEFFFF",
"f.	c #A1BDD6",
"g.	c #A2BDD5",
"h.	c #1982B6",
"  . + @ # # # # $ % $ # # $ % $ # # $ % $ # # $ % $ # # @ + .   ",
"  + & & & & & & & & & & & & & & & & & & & & & & & & & & & & +   ",
"  @ & * = - - ; > , > ; ; > , > ; ; > , > ; ; > , > ; = * & @   ",
"  $ & ' ) ! ! ~ { ] { ~ ~ { ] { ~ ~ { ] { ~ ~ { ] { ~ ) ' & $   ",
"  ^ & / ( _ _ : < [ < : : < [ < : : < [ < : : < [ < : ( / & ^   ",
"  } & | 1 2 2 3 4 5 4 3 3 4 5 4 3 3 4 5 4 3 3 4 5 4 3 1 | & }   ",
"  6 & 7 8 9 9 0 a b a 0 0 a b a 0 0 a b a 0 0 a b a 0 8 7 & 6   ",
"  6 & 0 c d d e f g f e e f g f e e f g f e e f g f e c 0 & 6   ",
"  h & f i j j k l m l k k l m l k k l m l k k l m l k i f & h   ",
"  } & n o p p q r s r q q r s r q q r s r q q r s r q o n & }   ",
"  h & t u v v v w x w v v w x w v v w x w v v w x w v u t & h   ",
"  6 & y z y y A B C B A A B C B A A B C B A A B C B A z y & 6   ",
"  6 & D D E E F G H G F F G H G F F G H G F F G H G F D D & 6   ",
"  } & I J K K L M N M L L M N M L L M N M L L M N M L J I & }   ",
"  O & P Q R R R S T S R R S T S R R S T S R R S T S Q Q P & O   ",
"  U & V W X Y Z `  .` Z Z `  .` Z Z `  .` Z Z `  .` X W V & U   ",
"  U & ..Z +.@.#.$.%.$.#.#.$.%.$.#.#.$.%.$.#.#.$.%.$.+.Z ..& U   ",
"  U & &.*.=.-.;.>.,.>.;.;.>.,.>.;.;.>.,.>.;.;.>.,.>.'.*.&.& U   ",
"  U & V ).!.~.{.].^.].{.{.].^.].{.{.].^.].{.{.].^.].!.).V & U   ",
"  O & /.(._._._.V :.V _._.V :.V _._.V :.V _._.V :.V (.(./.& O   ",
"  } & & & & & & & <.& & & & <.& & & & <.& & & & <.& & & & & }   ",
"  6 & [.}.}.}.[.|.1.|.[.[.|.1.|.[.[.|.1.|.[.[.|.1.|.[.}.[.& 6   ",
"  2.& [.}.}.}.3.|.4.|.3.3.|.4.|.3.3.|.4.|.3.3.|.4.|.3.}.[.& 2.  ",
"  6 & 5.6.6.6.7.& 8.& 7.7.& 8.& 7.7.& 8.& 7.7.& 8.& 7.6.5.& 6   ",
"  h & 9.4.0.0.a.b.c.b.a.a.b.c.b.a.a.b.c.b.a.a.b.c.b.a.4.9.& h   ",
"  6 & & & & & & & d.& & & & d.& & & & d.& & & & d.& & & & & 6   ",
"  2.& & 7.7.7.e.& f.& e.e.& f.& e.e.& f.& e.e.& f.& e.7.& & 2.  ",
"  } & & & & & & & g.& & & & g.& & & & g.& & & & g.& & & & & }   ",
"  + & & & & & & & & & & & & & & & & & & & & & & & & & & & & +   ",
"  h.+ } 2.2.2.2.6 h 6 2.2.6 h 6 2.2.6 h 6 2.2.6 h 6 2.2.} + h.  ",
"                                                                ",
"                                                                "};
